<svg xmlns="http://www.w3.org/2000/svg" xmlns:xlink="http://www.w3.org/1999/xlink" width="512" zoomAndPan="magnify" viewBox="0 0 384 383.999986" height="512" preserveAspectRatio="xMidYMid meet" version="1.0"><defs><clipPath id="55c4929391"><path d="M 17.964844 143.34375 L 366.566406 143.34375 L 366.566406 240.855469 L 17.964844 240.855469 Z M 17.964844 143.34375 " clip-rule="nonzero"/></clipPath><clipPath id="d464ea4f4c"><path d="M 17.964844 16 L 366.566406 16 L 366.566406 368 L 17.964844 368 Z M 17.964844 16 " clip-rule="nonzero"/></clipPath></defs><rect x="-38.4" width="460.8" fill="#ffffff" y="-38.399999" height="460.799983" fill-opacity="1"/><rect x="-38.4" width="460.8" fill="#ffffff" y="-38.399999" height="460.799983" fill-opacity="1"/><rect x="-38.4" width="460.8" fill="#ffffff" y="-38.399999" height="460.799983" fill-opacity="1"/><rect x="-38.4" width="460.8" fill="#1f2937" y="-38.399999" height="460.799983" fill-opacity="1"/><g clip-path="url(#55c4929391)"><path fill="#ffffff" d="M 49.703125 218.125 C 45.113281 218.125 40.867188 217.285156 36.972656 215.605469 C 33.0625 213.941406 29.683594 211.613281 26.835938 208.621094 C 23.976562 205.644531 21.746094 202.121094 20.144531 198.054688 C 18.53125 193.984375 17.726562 189.523438 17.726562 184.671875 C 17.726562 179.816406 18.53125 175.355469 20.144531 171.289062 C 21.746094 167.222656 23.976562 163.691406 26.835938 160.703125 C 29.683594 157.722656 33.0625 155.394531 36.972656 153.714844 C 40.867188 152.050781 45.113281 151.214844 49.703125 151.214844 C 54.296875 151.214844 58.546875 152.050781 62.457031 153.714844 C 66.355469 155.394531 69.746094 157.722656 72.632812 160.703125 C 75.519531 163.691406 77.769531 167.222656 79.382812 171.289062 C 80.984375 175.355469 81.78125 179.816406 81.78125 184.671875 C 81.78125 189.523438 80.984375 193.984375 79.382812 198.054688 C 77.769531 202.121094 75.519531 205.644531 72.632812 208.621094 C 69.746094 211.613281 66.355469 213.941406 62.457031 215.605469 C 58.546875 217.285156 54.296875 218.125 49.703125 218.125 Z M 51.769531 213.992188 C 56.101562 213.992188 59.90625 212.910156 63.1875 210.746094 C 66.464844 208.582031 69.023438 205.53125 70.859375 201.59375 C 72.699219 197.660156 73.617188 193.035156 73.617188 187.722656 C 73.617188 181.160156 72.46875 175.453125 70.171875 170.601562 C 67.875 165.746094 64.792969 161.972656 60.921875 159.285156 C 57.050781 156.59375 52.753906 155.25 48.03125 155.25 C 43.703125 155.25 39.867188 156.3125 36.519531 158.4375 C 33.175781 160.578125 30.570312 163.613281 28.707031 167.550781 C 26.832031 171.484375 25.894531 176.109375 25.894531 181.425781 C 25.894531 187.984375 27.039062 193.703125 29.335938 198.585938 C 31.632812 203.476562 34.734375 207.269531 38.644531 209.960938 C 42.542969 212.648438 46.917969 213.992188 51.769531 213.992188 Z M 104.019531 218.125 C 100.9375 218.125 98.378906 217.222656 96.34375 215.410156 C 94.3125 213.613281 93.296875 211.105469 93.296875 207.894531 C 93.296875 204.679688 94.476562 201.957031 96.835938 199.726562 C 99.199219 197.496094 103.101562 195.722656 108.546875 194.414062 L 118.089844 192.050781 L 118.089844 184.472656 C 118.089844 181.980469 117.121094 179.914062 115.179688 178.273438 C 113.25 176.636719 111.105469 175.816406 108.742188 175.816406 C 106.121094 175.816406 104.28125 176.4375 103.234375 177.683594 C 102.183594 178.929688 101.660156 180.636719 101.660156 182.800781 L 101.660156 186.046875 L 101.167969 186.539062 L 97.035156 186.539062 C 96.050781 186.539062 95.375 186.390625 95.007812 186.089844 C 94.652344 185.800781 94.476562 185.097656 94.476562 183.980469 C 94.476562 182.605469 94.902344 181.195312 95.753906 179.75 C 96.609375 178.308594 97.886719 177.0625 99.59375 176.011719 C 101.429688 174.832031 103.3125 173.847656 105.242188 173.058594 C 107.183594 172.273438 109.136719 171.878906 111.105469 171.878906 C 113.597656 171.878906 115.859375 172.21875 117.894531 172.902344 C 119.929688 173.597656 121.570312 174.734375 122.816406 176.308594 C 124.0625 177.882812 124.683594 179.980469 124.683594 182.605469 L 124.683594 211.632812 C 125.210938 212.15625 125.863281 212.550781 126.652344 212.8125 C 127.4375 213.074219 128.457031 213.207031 129.703125 213.207031 L 134.03125 213.207031 L 134.230469 213.402344 L 134.230469 213.601562 C 133.574219 214.714844 132.570312 215.746094 131.21875 216.691406 C 129.878906 217.648438 128.195312 218.125 126.160156 218.125 C 124.0625 218.125 122.386719 217.570312 121.140625 216.453125 C 119.894531 215.339844 119.042969 213.929688 118.582031 212.222656 L 118.089844 212.222656 C 116.386719 213.929688 114.300781 215.339844 111.832031 216.453125 C 109.378906 217.570312 106.777344 218.125 104.019531 218.125 Z M 99.886719 206.023438 C 99.886719 208.320312 100.578125 210.039062 101.953125 211.179688 C 103.332031 212.335938 105.265625 212.910156 107.761719 212.910156 C 109.398438 212.910156 111.074219 212.714844 112.777344 212.320312 C 114.484375 211.925781 116.253906 211.269531 118.089844 210.351562 L 118.089844 194.90625 C 112.777344 195.953125 108.824219 197.035156 106.226562 198.152344 C 103.640625 199.265625 101.933594 200.460938 101.109375 201.734375 C 100.292969 203.019531 99.886719 204.449219 99.886719 206.023438 Z M 160.304688 217.140625 L 140.429688 217.140625 L 140.429688 215.566406 L 146.628906 213.109375 L 146.628906 151.90625 L 140.230469 148.066406 L 140.230469 147.082031 L 152.53125 143.34375 L 153.316406 143.34375 L 153.316406 192.246094 L 169.949219 177.882812 L 169.949219 177.292969 L 165.125 174.4375 L 165.125 172.863281 L 182.640625 172.863281 L 182.640625 174.4375 L 176.34375 177.191406 L 159.222656 190.476562 L 179.984375 212.910156 L 186.28125 215.566406 L 186.28125 217.140625 L 174.277344 217.140625 L 171.03125 212.714844 L 153.316406 193.332031 L 153.316406 213.207031 L 160.304688 215.566406 Z M 213.125 217.140625 L 193.738281 217.140625 L 193.738281 215.566406 L 199.9375 213.109375 L 199.9375 151.90625 L 193.542969 148.066406 L 193.542969 147.082031 L 205.84375 143.34375 L 206.628906 143.34375 L 206.628906 213.109375 L 213.125 215.566406 Z M 243.234375 218.125 C 238.839844 218.125 235.085938 217.207031 231.976562 215.371094 C 228.855469 213.535156 226.472656 210.988281 224.832031 207.734375 C 223.195312 204.496094 222.375 200.742188 222.375 196.480469 C 222.375 191.753906 223.324219 187.539062 225.226562 183.824219 C 227.128906 180.125 229.65625 177.207031 232.804688 175.066406 C 235.953125 172.941406 239.363281 171.878906 243.039062 171.878906 C 248.21875 171.878906 252.285156 173.652344 255.238281 177.191406 C 258.191406 180.734375 259.765625 185.71875 259.960938 192.148438 L 259.566406 192.542969 L 228.964844 192.542969 C 228.964844 192.804688 228.964844 193.066406 228.964844 193.332031 C 228.964844 196.742188 229.558594 199.871094 230.738281 202.71875 C 231.917969 205.578125 233.789062 207.839844 236.347656 209.507812 C 238.90625 211.1875 242.21875 212.027344 246.285156 212.027344 C 251.140625 212.027344 255.597656 210.582031 259.667969 207.695312 L 259.960938 207.695312 L 259.960938 208.777344 C 258.519531 211.402344 256.339844 213.613281 253.429688 215.410156 C 250.503906 217.222656 247.105469 218.125 243.234375 218.125 Z M 241.5625 175.324219 C 238.414062 175.324219 235.722656 176.515625 233.492188 178.90625 C 231.261719 181.304688 229.851562 184.671875 229.261719 189 L 253.269531 189 C 251.957031 179.882812 248.054688 175.324219 241.5625 175.324219 Z M 271.472656 240.855469 C 270.03125 240.855469 269.125 240.644531 268.757812 240.226562 C 268.40625 239.792969 268.226562 239.050781 268.226562 238.003906 L 268.226562 234.164062 L 268.621094 233.773438 L 273.148438 233.773438 C 274.789062 233.773438 276.035156 233.621094 276.886719 233.320312 C 277.738281 233.03125 278.527344 232.296875 279.246094 231.113281 C 279.96875 229.933594 280.984375 227.964844 282.296875 225.210938 L 286.332031 216.257812 L 269.113281 176.996094 L 262.71875 174.4375 L 262.71875 172.863281 L 284.363281 172.863281 L 284.363281 174.4375 L 276.492188 176.898438 L 276.492188 177.292969 L 289.578125 207.992188 L 289.875 207.992188 L 301.289062 177.683594 L 301.289062 177.191406 L 293.710938 174.4375 L 293.710938 172.863281 L 312.210938 172.863281 L 312.210938 174.4375 L 305.324219 177.09375 L 285.445312 226.097656 C 284.527344 228.261719 283.773438 229.96875 283.183594 231.214844 C 282.59375 232.460938 281.707031 233.9375 280.527344 235.640625 C 279.28125 237.347656 277.871094 238.644531 276.296875 239.539062 C 274.722656 240.417969 273.113281 240.855469 271.472656 240.855469 Z M 322.050781 168.925781 L 320.082031 168.925781 L 317.132812 144.328125 L 324.90625 144.328125 Z M 351.746094 218.125 C 348.992188 218.125 346.585938 217.863281 344.523438 217.339844 C 342.453125 216.8125 340.367188 216.027344 338.265625 214.976562 L 338.265625 204.253906 L 339.546875 204.253906 L 342.007812 209.269531 C 342.859375 211.105469 344.09375 212.53125 345.707031 213.542969 C 347.304688 214.5625 349.386719 215.074219 351.945312 215.074219 C 354.832031 215.074219 357.046875 214.398438 358.597656 213.050781 C 360.132812 211.710938 360.898438 209.796875 360.898438 207.300781 C 360.898438 204.613281 360.011719 202.613281 358.242188 201.300781 C 356.46875 199.988281 353.847656 198.578125 350.371094 197.070312 C 346.761719 195.558594 344.039062 193.886719 342.203125 192.050781 C 340.367188 190.214844 339.449219 187.621094 339.449219 184.277344 C 339.449219 182.046875 340.089844 179.980469 341.375 178.078125 C 342.648438 176.175781 344.300781 174.667969 346.335938 173.550781 C 348.371094 172.4375 350.5 171.878906 352.730469 171.878906 C 355.222656 171.878906 357.453125 172.175781 359.421875 172.765625 C 361.390625 173.355469 363.261719 174.109375 365.03125 175.027344 L 365.03125 185.457031 L 363.753906 185.457031 L 361.292969 180.636719 C 360.4375 178.601562 359.246094 177.160156 357.710938 176.308594 C 356.164062 175.453125 354.566406 175.027344 352.929688 175.027344 C 350.566406 175.027344 348.71875 175.664062 347.378906 176.9375 C 346.027344 178.222656 345.351562 179.949219 345.351562 182.113281 C 345.351562 184.34375 346.125 186.09375 347.671875 187.367188 C 349.207031 188.652344 351.550781 189.984375 354.699219 191.363281 C 356.929688 192.347656 358.964844 193.34375 360.800781 194.351562 C 362.636719 195.375 364.101562 196.707031 365.1875 198.347656 C 366.265625 199.988281 366.800781 202.25 366.800781 205.136719 C 366.800781 207.761719 366.082031 210.039062 364.636719 211.964844 C 363.195312 213.910156 361.324219 215.417969 359.027344 216.492188 C 356.734375 217.582031 354.304688 218.125 351.746094 218.125 Z M 351.746094 218.125 " fill-opacity="1" fill-rule="nonzero"/></g><g clip-path="url(#d464ea4f4c)"><path fill="#ffffff" d="M 17.707031 134.773438 L 17.707031 16.992188 L 366.820312 16.992188 L 366.820312 134.773438 L 358.027344 134.773438 L 358.027344 25.789062 L 26.5 25.789062 L 26.5 134.773438 L 17.707031 134.773438 M 17.707031 249.425781 L 17.707031 367.207031 L 366.820312 367.207031 L 366.820312 249.425781 L 358.027344 249.425781 L 358.027344 358.410156 L 26.5 358.410156 L 26.5 249.425781 L 17.707031 249.425781 " fill-opacity="1" fill-rule="nonzero"/></g></svg>